<?xml version="1.0" encoding="UTF-8"?>
<svg id="Capa_1" data-name="Capa 1" xmlns="http://www.w3.org/2000/svg" viewBox="0 0 972 350">
  <defs>
    <style>
      .cls-1 {
        fill: #7f0e42;
      }

      .cls-2 {
        fill: #fff;
      }

      .cls-3 {
        fill: #343738;
      }

      .cls-4 {
        fill: #404041;
      }
    </style>
  </defs>
  <g>
    <rect class="cls-1" x="60.96" y="90.88" width="162.85" height="162.85" rx="8.86" ry="8.86"/>
    <g>
      <path class="cls-2" d="M198.96,211.14c12.8-8.47,19.4-21.95,15.2-33.52-4.08-11.22-17.11-17.31-31.82-16.09-3.1.25-6.28.84-9.47,1.77l.24-.79c.86-2.87-2.58-5.06-4.81-3.06l-9.92,8.89h0s-30.89,27.69-30.89,27.69c-.38.34-.96-.03-.81-.52l7.64-25.65c.17-.58-.39-1.11-.96-.89l-14.52,5.52c-.85.32-1.5,1.02-1.76,1.89l-2.48,8.21h0s-17.42,0-17.42,0c-.49,0-.84-.47-.7-.94l6.18-20.69c.42-1.47-.77-2.29-1.9-1.86l-13.3,5.06c-.42.16-.75.51-.88.94l-17.15,57.53c-.35,1.16.78,2.22,1.91,1.79l13.26-5.01c.43-.16.76-.51.89-.95l5.95-19.98c.09-.31.38-.52.7-.52h17.99l-4.61,15.33c-2.54,8.46,7.63,14.92,14.21,9.02l24.33-21.82c.06.17.11.33.17.5,4.49,12.35,19.82,18.48,36.3,15.49.21-.04.42-.07.63-.11.27-.05.55-.11.82-.17.23-.05.46-.09.68-.14l7.22,5.89c1,.82,2.42.88,3.49.15l8.78-5.96c.81-.55.86-1.72.1-2.34l-4.66-3.8h0s-.01-.01-.01-.01c.4-.24.79-.49,1.18-.75.07-.03.13-.07.19-.11ZM185.26,201.95l-.87-.71c-.87-.71-2.07-.86-3.09-.38l-.16.07h0c-4.63,1.76-11.76,3.71-16.45-1.31-.87-.96-1.55-2.07-2-3.3-2.47-6.79,2.93-14.98,12.05-18.29,1.99-.72,3.99-1.15,5.93-1.32,6.94-.56,13.08,2.31,15,7.61,2.31,6.37-2.3,13.98-10.42,17.62Z"/>
      <path class="cls-2" d="M115.68,128.59l-3.72,13.49h14.35l4.67-15.63h-12.48c-1.31,0-2.47.88-2.82,2.15Z"/>
      <path class="cls-2" d="M163.06,126.44h-14.76l-4.67,15.63h12.89c1.31,0,2.47-.88,2.82-2.15l3.72-13.49Z"/>
      <path class="cls-2" d="M136.71,118c-1.29,0-2.43.85-2.8,2.09l-1.89,6.33-4.67,15.63-9.39,31.26,15.92-6.03c.85-.32,1.5-1.02,1.76-1.9l6.99-23.34,4.67-15.63,2.51-8.42h-13.11Z"/>
    </g>
  </g>
  <g>
    <path class="cls-3" d="M295.7,90.92v54.21h-12.69v-22.23h-24.91v22.23h-12.69v-54.21h12.69v21.37h24.91v-21.37h12.69Z"/>
    <path class="cls-3" d="M305.26,118.02c0-16.11,12.69-28.03,30.01-28.03s30.01,11.85,30.01,28.03-12.77,28.03-30.01,28.03-30.01-11.93-30.01-28.03ZM352.43,118.02c0-10.3-7.36-17.35-17.16-17.35s-17.16,7.05-17.16,17.35,7.36,17.35,17.16,17.35,17.16-7.05,17.16-17.35Z"/>
    <path class="cls-3" d="M370.52,139.79l4.31-9.45c4.62,3.33,11.52,5.65,18.1,5.65,7.52,0,10.58-2.48,10.58-5.81,0-10.14-31.89-3.18-31.89-23.31,0-9.22,7.52-16.88,23.11-16.88,6.89,0,13.95,1.63,19.04,4.8l-3.92,9.52c-5.09-2.86-10.34-4.26-15.2-4.26-7.52,0-10.42,2.79-10.42,6.19,0,9.99,31.89,3.1,31.89,23,0,9.06-7.6,16.81-23.27,16.81-8.7,0-17.47-2.56-22.33-6.27Z"/>
    <path class="cls-3" d="M472.37,110.59c0,12.08-9.17,19.59-23.82,19.59h-11.05v14.95h-12.69v-54.21h23.74c14.65,0,23.82,7.51,23.82,19.67ZM459.52,110.59c0-5.96-3.92-9.45-11.67-9.45h-10.34v18.82h10.34c7.76,0,11.67-3.48,11.67-9.37Z"/>
    <path class="cls-3" d="M481.38,90.92h12.69v54.21h-12.69v-54.21Z"/>
    <path class="cls-3" d="M518.44,101.14h-17.55v-10.22h47.79v10.22h-17.55v43.99h-12.69v-43.99Z"/>
    <path class="cls-3" d="M588.88,133.51h-25.46l-4.86,11.62h-13.01l24.44-54.21h12.54l24.52,54.21h-13.32l-4.86-11.62ZM584.88,123.99l-8.7-20.75-8.7,20.75h17.39Z"/>
    <path class="cls-3" d="M612.77,90.92h12.69v43.99h27.5v10.22h-40.19v-54.21Z"/>
  </g>
  <g>
    <path class="cls-3" d="M301.25,161.7l-20.06,47.44h-15.72l-20.06-47.44h17.22l11.32,27.72,11.59-27.72h15.72Z"/>
    <path class="cls-3" d="M300.23,185.42c0-14.37,11.32-24.81,26.77-24.81s26.77,10.44,26.77,24.81-11.32,24.81-26.77,24.81-26.77-10.44-26.77-24.81ZM337.65,185.42c0-7.39-4.74-11.86-10.64-11.86s-10.64,4.47-10.64,11.86,4.74,11.86,10.64,11.86,10.64-4.47,10.64-11.86Z"/>
    <path class="cls-3" d="M401.15,196.74v12.4h-43.58v-9.83l21.69-25.21h-21.01v-12.4h41.82v9.83l-21.69,25.21h22.77Z"/>
    <path class="cls-3" d="M438.16,200.87h-18.03l-3.19,8.27h-16.27l20.74-47.44h15.72l20.74,47.44h-16.54l-3.19-8.27ZM433.75,189.35l-4.61-11.93-4.61,11.93h9.22Z"/>
    <path class="cls-3" d="M507.23,161.7v47.44h-13.15l-18.03-21.55v21.55h-15.59v-47.44h13.15l18.03,21.55v-21.55h15.59Z"/>
    <path class="cls-3" d="M514.95,161.7h23.38c15.86,0,26.77,9.01,26.77,23.72s-10.91,23.72-26.77,23.72h-23.38v-47.44ZM537.66,196.67c6.71,0,11.32-4,11.32-11.25s-4.61-11.25-11.32-11.25h-6.71v22.5h6.71Z"/>
    <path class="cls-3" d="M610.38,197.08v12.06h-39.44v-47.44h38.56v12.07h-22.84v5.56h20.06v11.52h-20.06v6.24h23.72Z"/>
    <path class="cls-3" d="M613.57,205.34l5.15-11.66c4.47,2.64,10.44,4.34,15.66,4.34,4.54,0,6.17-.95,6.17-2.57,0-5.97-26.23-1.15-26.23-18.84,0-8.81,7.39-16,22.09-16,6.37,0,12.95,1.36,17.89,4.14l-4.81,11.59c-4.68-2.37-9.08-3.52-13.22-3.52-4.67,0-6.17,1.36-6.17,2.98,0,5.69,26.23.95,26.23,18.44,0,8.68-7.39,15.99-22.09,15.99-7.93,0-15.93-1.97-20.67-4.88Z"/>
    <path class="cls-3" d="M735.63,215.1c-3.32,3.93-8.13,6.03-13.83,6.03-8.4,0-13.62-2.64-22.16-11.59-11.93-2.51-20.13-11.93-20.13-24.13,0-14.37,11.32-24.81,26.77-24.81s26.77,10.44,26.77,24.81c0,10.5-6.03,18.91-15.32,22.64,1.42,1.49,2.71,1.97,4.41,1.97,2.3,0,4.61-1.08,6.57-3.05l6.91,8.13ZM695.65,185.42c0,7.39,4.74,11.86,10.64,11.86s10.64-4.47,10.64-11.86-4.75-11.86-10.64-11.86-10.64,4.47-10.64,11.86Z"/>
    <path class="cls-3" d="M738.48,187.79v-26.09h15.99v25.62c0,7.25,2.78,9.96,7.25,9.96s7.25-2.71,7.25-9.96v-25.62h15.72v26.09c0,14.23-8.54,22.43-23.11,22.43s-23.11-8.2-23.11-22.43Z"/>
    <path class="cls-3" d="M792.03,161.7h15.99v47.44h-15.99v-47.44Z"/>
    <path class="cls-3" d="M826.05,174.1h-13.89v-12.4h43.78v12.4h-13.89v35.04h-15.99v-35.04Z"/>
    <path class="cls-3" d="M857.5,185.42c0-14.37,11.32-24.81,26.77-24.81s26.77,10.44,26.77,24.81-11.32,24.81-26.77,24.81-26.77-10.44-26.77-24.81ZM894.91,185.42c0-7.39-4.75-11.86-10.64-11.86s-10.64,4.47-10.64,11.86,4.74,11.86,10.64,11.86,10.64-4.47,10.64-11.86Z"/>
  </g>
  <g>
    <path class="cls-4" d="M261.73,249.55h-9.66l-1.84,4.46h-4.93l9.27-20.8h4.75l9.3,20.8h-5.05l-1.84-4.46ZM260.21,245.9l-3.3-7.96-3.3,7.96h6.6Z"/>
    <path class="cls-4" d="M278.86,231.97h4.63v22.04h-4.63v-22.04Z"/>
    <path class="cls-4" d="M301.94,244.89v9.12h-4.34v-1.99c-.86,1.46-2.52,2.23-4.87,2.23-3.74,0-5.97-2.08-5.97-4.84s1.99-4.78,6.86-4.78h3.68c0-1.99-1.19-3.15-3.68-3.15-1.69,0-3.45.57-4.61,1.49l-1.66-3.24c1.75-1.25,4.34-1.93,6.89-1.93,4.87,0,7.69,2.26,7.69,7.1ZM297.3,248.96v-1.63h-3.18c-2.17,0-2.85.8-2.85,1.87,0,1.16.98,1.93,2.61,1.93,1.54,0,2.88-.71,3.42-2.17Z"/>
    <path class="cls-4" d="M331.01,238.03v13.31c0,5.94-3.21,8.67-8.97,8.67-3.03,0-5.97-.74-7.84-2.2l1.84-3.33c1.37,1.1,3.59,1.81,5.64,1.81,3.27,0,4.69-1.49,4.69-4.37v-.68c-1.22,1.34-2.97,1.99-5.05,1.99-4.43,0-7.99-3.06-7.99-7.72s3.56-7.72,7.99-7.72c2.23,0,4.07.74,5.29,2.29v-2.05h4.4ZM326.44,245.51c0-2.35-1.75-3.92-4.19-3.92s-4.22,1.57-4.22,3.92,1.78,3.92,4.22,3.92,4.19-1.57,4.19-3.92Z"/>
    <path class="cls-4" d="M335.31,231.97h4.63v22.04h-4.63v-22.04Z"/>
    <path class="cls-4" d="M343.06,246.02c0-4.81,3.71-8.23,8.79-8.23s8.76,3.42,8.76,8.23-3.68,8.23-8.76,8.23-8.79-3.42-8.79-8.23ZM355.93,246.02c0-2.76-1.75-4.43-4.07-4.43s-4.1,1.66-4.1,4.43,1.78,4.43,4.1,4.43,4.07-1.66,4.07-4.43Z"/>
    <path class="cls-4" d="M373.63,237.79v4.28c-.39-.03-.68-.06-1.04-.06-2.55,0-4.25,1.4-4.25,4.46v7.55h-4.63v-15.98h4.43v2.11c1.13-1.55,3.03-2.35,5.5-2.35Z"/>
    <path class="cls-4" d="M375.82,233.21c0-1.46,1.16-2.58,2.88-2.58s2.88,1.07,2.88,2.49c0,1.55-1.16,2.67-2.88,2.67s-2.88-1.13-2.88-2.58ZM376.39,238.03h4.63v15.98h-4.63v-15.98Z"/>
    <path class="cls-4" d="M399.47,244.89v9.12h-4.34v-1.99c-.86,1.46-2.52,2.23-4.87,2.23-3.74,0-5.97-2.08-5.97-4.84s1.99-4.78,6.86-4.78h3.68c0-1.99-1.19-3.15-3.68-3.15-1.69,0-3.45.57-4.61,1.49l-1.66-3.24c1.75-1.25,4.34-1.93,6.89-1.93,4.87,0,7.69,2.26,7.69,7.1ZM394.83,248.96v-1.63h-3.18c-2.17,0-2.85.8-2.85,1.87,0,1.16.98,1.93,2.61,1.93,1.54,0,2.88-.71,3.42-2.17Z"/>
    <path class="cls-4" d="M428.33,231.97v22.04h-4.43v-1.84c-1.16,1.4-2.85,2.08-4.99,2.08-4.52,0-7.99-3.21-7.99-8.23s3.48-8.23,7.99-8.23c1.96,0,3.62.62,4.78,1.93v-7.75h4.63ZM423.79,246.02c0-2.76-1.78-4.43-4.07-4.43s-4.1,1.66-4.1,4.43,1.78,4.43,4.1,4.43,4.07-1.66,4.07-4.43Z"/>
    <path class="cls-4" d="M448.17,247.33h-12.09c.45,1.99,2.14,3.21,4.57,3.21,1.69,0,2.91-.5,4.01-1.54l2.47,2.67c-1.49,1.69-3.71,2.58-6.6,2.58-5.53,0-9.12-3.48-9.12-8.23s3.65-8.23,8.53-8.23,8.32,3.15,8.32,8.29c0,.36-.06.86-.09,1.25ZM436.02,244.62h7.87c-.33-2.02-1.84-3.33-3.92-3.33s-3.62,1.28-3.95,3.33Z"/>
    <path class="cls-4" d="M460.08,233.21h9.45c6.8,0,11.47,4.1,11.47,10.4s-4.66,10.4-11.47,10.4h-9.45v-20.8ZM469.29,250.06c4.13,0,6.83-2.47,6.83-6.45s-2.7-6.45-6.83-6.45h-4.4v12.89h4.4Z"/>
    <path class="cls-4" d="M483.72,233.21c0-1.46,1.16-2.58,2.88-2.58s2.88,1.07,2.88,2.49c0,1.55-1.16,2.67-2.88,2.67s-2.88-1.13-2.88-2.58ZM484.28,238.03h4.63v15.98h-4.63v-15.98Z"/>
    <path class="cls-4" d="M492.03,246.02c0-4.81,3.71-8.23,8.79-8.23s8.76,3.42,8.76,8.23-3.68,8.23-8.76,8.23-8.79-3.42-8.79-8.23ZM504.89,246.02c0-2.76-1.75-4.43-4.07-4.43s-4.1,1.66-4.1,4.43,1.78,4.43,4.1,4.43,4.07-1.66,4.07-4.43Z"/>
    <path class="cls-4" d="M511.13,252.52l1.54-3.33c1.43.92,3.59,1.54,5.55,1.54,2.14,0,2.94-.56,2.94-1.46,0-2.61-9.66.06-9.66-6.33,0-3.03,2.73-5.17,7.4-5.17,2.2,0,4.63.5,6.15,1.4l-1.54,3.3c-1.57-.89-3.15-1.19-4.61-1.19-2.08,0-2.97.65-2.97,1.49,0,2.73,9.65.09,9.65,6.39,0,2.97-2.76,5.08-7.54,5.08-2.7,0-5.44-.74-6.92-1.72Z"/>
    <path class="cls-4" d="M552.71,238.03l-7.22,16.96c-1.54,3.86-3.74,5.02-6.62,5.02-1.63,0-3.42-.53-4.46-1.46l1.69-3.3c.71.62,1.69,1.01,2.61,1.01,1.28,0,1.99-.57,2.61-1.99l.06-.15-6.92-16.1h4.78l4.49,10.84,4.52-10.84h4.46Z"/>
    <path class="cls-4" d="M577.15,244.89v9.12h-4.34v-1.99c-.86,1.46-2.52,2.23-4.87,2.23-3.74,0-5.97-2.08-5.97-4.84s1.99-4.78,6.86-4.78h3.68c0-1.99-1.19-3.15-3.68-3.15-1.69,0-3.45.57-4.61,1.49l-1.66-3.24c1.75-1.25,4.34-1.93,6.89-1.93,4.87,0,7.69,2.26,7.69,7.1ZM572.52,248.96v-1.63h-3.18c-2.17,0-2.85.8-2.85,1.87,0,1.16.98,1.93,2.61,1.93,1.54,0,2.88-.71,3.42-2.17Z"/>
    <path class="cls-4" d="M581.33,231.97h4.63v22.04h-4.63v-22.04Z"/>
    <path class="cls-4" d="M597.13,252.52l1.54-3.33c1.43.92,3.59,1.54,5.55,1.54,2.14,0,2.94-.56,2.94-1.46,0-2.61-9.66.06-9.66-6.33,0-3.03,2.73-5.17,7.4-5.17,2.2,0,4.63.5,6.15,1.4l-1.55,3.3c-1.57-.89-3.15-1.19-4.6-1.19-2.08,0-2.97.65-2.97,1.49,0,2.73,9.66.09,9.66,6.39,0,2.97-2.76,5.08-7.55,5.08-2.7,0-5.44-.74-6.92-1.72Z"/>
    <path class="cls-4" d="M630.01,247.33h-12.09c.45,1.99,2.14,3.21,4.58,3.21,1.69,0,2.91-.5,4.01-1.54l2.47,2.67c-1.49,1.69-3.71,2.58-6.59,2.58-5.53,0-9.12-3.48-9.12-8.23s3.65-8.23,8.52-8.23,8.32,3.15,8.32,8.29c0,.36-.06.86-.09,1.25ZM617.86,244.62h7.87c-.33-2.02-1.84-3.33-3.92-3.33s-3.63,1.28-3.95,3.33Z"/>
    <path class="cls-4" d="M643.11,237.79v4.28c-.39-.03-.68-.06-1.04-.06-2.56,0-4.25,1.4-4.25,4.46v7.55h-4.63v-15.98h4.43v2.11c1.13-1.55,3.03-2.35,5.5-2.35Z"/>
    <path class="cls-4" d="M662.3,238.03l-6.74,15.98h-4.78l-6.71-15.98h4.78l4.43,10.87,4.57-10.87h4.46Z"/>
    <path class="cls-4" d="M663.63,233.21c0-1.46,1.16-2.58,2.88-2.58s2.88,1.07,2.88,2.49c0,1.55-1.16,2.67-2.88,2.67s-2.88-1.13-2.88-2.58ZM664.19,238.03h4.63v15.98h-4.63v-15.98Z"/>
    <path class="cls-4" d="M671.94,246.02c0-4.81,3.71-8.23,8.91-8.23,3.36,0,6,1.46,7.16,4.07l-3.59,1.93c-.86-1.51-2.14-2.2-3.59-2.2-2.35,0-4.19,1.63-4.19,4.43s1.84,4.43,4.19,4.43c1.46,0,2.73-.65,3.59-2.2l3.59,1.96c-1.16,2.56-3.8,4.04-7.16,4.04-5.2,0-8.91-3.42-8.91-8.23Z"/>
    <path class="cls-4" d="M690.12,233.21c0-1.46,1.16-2.58,2.88-2.58s2.88,1.07,2.88,2.49c0,1.55-1.16,2.67-2.88,2.67s-2.88-1.13-2.88-2.58ZM690.68,238.03h4.63v15.98h-4.63v-15.98Z"/>
    <path class="cls-4" d="M698.43,246.02c0-4.81,3.71-8.23,8.79-8.23s8.76,3.42,8.76,8.23-3.68,8.23-8.76,8.23-8.79-3.42-8.79-8.23ZM711.3,246.02c0-2.76-1.75-4.43-4.07-4.43s-4.1,1.66-4.1,4.43,1.78,4.43,4.1,4.43,4.07-1.66,4.07-4.43Z"/>
    <path class="cls-4" d="M743.76,231.97v22.04h-4.43v-1.84c-1.16,1.4-2.85,2.08-4.99,2.08-4.51,0-7.99-3.21-7.99-8.23s3.48-8.23,7.99-8.23c1.96,0,3.63.62,4.78,1.93v-7.75h4.63ZM739.21,246.02c0-2.76-1.78-4.43-4.07-4.43s-4.1,1.66-4.1,4.43,1.78,4.43,4.1,4.43,4.07-1.66,4.07-4.43Z"/>
    <path class="cls-4" d="M763.59,247.33h-12.09c.45,1.99,2.14,3.21,4.58,3.21,1.69,0,2.91-.5,4.01-1.54l2.47,2.67c-1.49,1.69-3.72,2.58-6.6,2.58-5.53,0-9.12-3.48-9.12-8.23s3.65-8.23,8.52-8.23,8.32,3.15,8.32,8.29c0,.36-.06.86-.09,1.25ZM751.44,244.62h7.87c-.33-2.02-1.84-3.33-3.92-3.33s-3.63,1.28-3.95,3.33Z"/>
    <path class="cls-4" d="M766.77,231.97h4.63v22.04h-4.63v-22.04Z"/>
    <path class="cls-4" d="M800.54,250.15v3.86h-16.1v-20.8h15.71v3.86h-10.93v4.52h9.66v3.74h-9.66v4.81h11.32Z"/>
    <path class="cls-4" d="M802.73,246.02c0-4.81,3.71-8.23,8.91-8.23,3.36,0,6,1.46,7.16,4.07l-3.59,1.93c-.86-1.51-2.14-2.2-3.59-2.2-2.35,0-4.19,1.63-4.19,4.43s1.84,4.43,4.19,4.43c1.46,0,2.73-.65,3.59-2.2l3.59,1.96c-1.16,2.56-3.8,4.04-7.16,4.04-5.2,0-8.91-3.42-8.91-8.23Z"/>
    <path class="cls-4" d="M837.57,238.03v15.98h-4.4v-1.9c-1.22,1.4-3,2.14-4.96,2.14-4.01,0-6.83-2.26-6.83-7.19v-9.03h4.63v8.35c0,2.67,1.19,3.86,3.24,3.86s3.68-1.37,3.68-4.31v-7.9h4.63Z"/>
    <path class="cls-4" d="M856.01,244.89v9.12h-4.34v-1.99c-.86,1.46-2.53,2.23-4.87,2.23-3.74,0-5.97-2.08-5.97-4.84s1.99-4.78,6.86-4.78h3.68c0-1.99-1.19-3.15-3.68-3.15-1.69,0-3.45.57-4.6,1.49l-1.66-3.24c1.75-1.25,4.34-1.93,6.89-1.93,4.87,0,7.69,2.26,7.69,7.1ZM851.38,248.96v-1.63h-3.18c-2.17,0-2.85.8-2.85,1.87,0,1.16.98,1.93,2.62,1.93,1.54,0,2.88-.71,3.41-2.17Z"/>
    <path class="cls-4" d="M876.65,231.97v22.04h-4.43v-1.84c-1.16,1.4-2.85,2.08-4.99,2.08-4.51,0-7.99-3.21-7.99-8.23s3.48-8.23,7.99-8.23c1.96,0,3.63.62,4.78,1.93v-7.75h4.63ZM872.11,246.02c0-2.76-1.78-4.43-4.07-4.43s-4.1,1.66-4.1,4.43,1.78,4.43,4.1,4.43,4.07-1.66,4.07-4.43Z"/>
    <path class="cls-4" d="M879.74,246.02c0-4.81,3.71-8.23,8.79-8.23s8.76,3.42,8.76,8.23-3.68,8.23-8.76,8.23-8.79-3.42-8.79-8.23ZM892.6,246.02c0-2.76-1.75-4.43-4.07-4.43s-4.1,1.66-4.1,4.43,1.78,4.43,4.1,4.43,4.07-1.66,4.07-4.43Z"/>
    <path class="cls-4" d="M910.3,237.79v4.28c-.39-.03-.68-.06-1.04-.06-2.56,0-4.25,1.4-4.25,4.46v7.55h-4.63v-15.98h4.43v2.11c1.13-1.55,3.03-2.35,5.5-2.35Z"/>
  </g>
</svg>